<svg width="576" height="524" viewBox="0 0 576 524" fill="none" xmlns="http://www.w3.org/2000/svg">
<g clip-path="url(#clip0_3_658)">
<rect width="576" height="524" rx="24" fill="url(#paint0_linear_3_658)"/>
<g clip-path="url(#clip1_3_658)">
<rect width="1297.2" height="552" transform="translate(-361)" fill="url(#paint1_linear_3_658)"/>
<path opacity="0.4" d="M-507.05 401.707L-444.4 416.584C-438.208 418.055 -431.702 417.416 -425.914 414.769L-350.737 380.384C-347.007 378.678 -342.954 377.795 -338.852 377.795H-279.384C-272.657 377.795 -266.145 375.422 -260.996 371.092L-202.177 321.638C-195.107 315.693 -185.599 313.533 -176.654 315.84L-134.035 326.83C-126.716 328.718 -118.948 327.628 -112.43 323.801L-57.4487 291.511C-49.3683 286.765 -39.4747 286.283 -30.9715 290.221L15.632 311.804C27.3372 317.225 41.2229 314.131 49.5192 304.253L91.9796 253.699C98.1236 246.383 107.517 242.623 117.012 243.677L218.315 254.921C224.4 255.597 230.542 254.299 235.834 251.221L335.568 193.207C338.431 191.541 341.562 190.386 344.821 189.793L553.799 151.782C559.383 150.766 565.143 151.437 570.344 153.707L635.504 182.152C647.103 187.215 660.651 184.045 668.799 174.361L727.442 104.662C733.98 96.8925 744.15 93.1759 754.157 94.9L872.282 115.251C881.661 116.867 891.229 113.706 897.801 106.822L940.254 62.3491C947.839 54.4039 959.306 51.5096 969.753 54.9042L1014.05 69.2979C1021 71.5554 1028.54 71.0664 1035.14 67.9313L1091.14 41.3249C1096.28 38.8817 1102.03 38.0301 1107.66 38.8791L1170.4 48.3421C1174.79 49.0054 1179.28 48.6331 1183.51 47.2548L1247.34 26.45" stroke="url(#paint2_linear_3_658)" stroke-width="3.45" stroke-linecap="round" stroke-linejoin="round"/>
<path fill-rule="evenodd" clip-rule="evenodd" d="M-641.322 633.429L-641.322 809.171H-639.022L-639.022 633.429H-527.687V809.171H-525.387V633.429H-414.052V809.171H-411.752V633.429H-300.417V809.171H-298.117V633.429H-188.504V809.171H-186.204V633.429H-74.8689V809.171H-72.5689V633.429H38.766V809.171H41.066V633.429H152.401V809.171H154.701V633.429H264.314V809.171H266.614V633.429H377.949V809.171H380.249V633.429H491.584V809.171H493.884V633.429H603.497V809.171H605.797V633.429H717.132V809.171H719.432V633.429H830.767V809.171H833.067V633.429H944.402V809.171H946.702V633.429H1056.31V809.171H1058.61V633.429H1169.95V809.171H1172.25V633.429H1328.35V631.129H1172.25V519.332H1328.35V517.032H1172.25V405.236H1328.35V402.936H1172.25V291.139H1328.35V288.839H1172.25L1172.25 177.042H1328.35V174.742H1172.25V62.9449H1328.35V60.6449H1172.25V-51.1519H1328.35V-53.4519H1172.25V-165.249H1328.35V-167.549H1172.25V-328.9L1169.95 -328.9V-167.549H1058.61V-328.9L1056.31 -328.9V-167.549H946.702V-328.9L944.402 -328.9V-167.549H833.067V-328.9L830.767 -328.9V-167.549H719.432V-328.9L717.132 -328.9V-167.549H605.797V-328.9L603.497 -328.9V-167.549H493.884V-328.9L491.584 -328.9V-167.549H380.249V-328.9L377.949 -328.9V-167.549H266.614V-328.9L264.314 -328.9V-167.549H154.701V-328.9L152.401 -328.9V-167.549H41.066V-328.9L38.7661 -328.9V-167.549H-72.5688V-328.9L-74.8688 -328.9V-167.549H-186.204V-328.9L-188.504 -328.9V-167.549H-298.117V-328.9L-300.417 -328.9V-167.549H-411.752V-328.9L-414.052 -328.9V-167.549H-525.387V-328.9L-527.687 -328.9V-167.549H-639.022L-639.022 -328.9L-641.322 -328.9L-641.322 -167.549H-798V-165.249H-641.322V-53.4519H-798V-51.1519H-641.322V60.6449H-798V62.9449H-641.322L-641.322 174.742H-798V177.042H-641.322V288.839H-798V291.139H-641.322L-641.322 402.936H-798V405.236H-641.322V517.032H-798V519.332H-641.322V631.129H-798V633.429H-641.322ZM1169.95 -165.249H1058.61V-53.4519H1169.95V-165.249ZM1169.95 -51.1519H1058.61V60.6449H1169.95V-51.1519ZM1169.95 62.9449H1058.61V174.742H1169.95V62.9449ZM1169.95 177.042H1058.61L1058.61 288.839H1169.95V177.042ZM1169.95 291.139H1058.61V402.936H1169.95V291.139ZM1169.95 405.236H1058.61V517.032H1169.95V405.236ZM1169.95 519.332H1058.61V631.129H1169.95V519.332ZM1056.31 519.332V631.129H946.702V519.332H1056.31ZM1056.31 405.236V517.032H946.702V405.236H1056.31ZM1056.31 291.139V402.936H946.702V291.139H1056.31ZM1056.31 177.042V288.839H946.702L946.702 177.042H1056.31ZM1056.31 62.9449V174.742H946.702V62.9449H1056.31ZM1056.31 -51.1519V60.6449H946.702V-51.1519H1056.31ZM1056.31 -165.249V-53.4519H946.702V-165.249H1056.31ZM944.402 -165.249H833.067V-53.4519H944.402V-165.249ZM944.402 -51.1519H833.067V60.6449H944.402V-51.1519ZM944.402 62.9449H833.067V174.742H944.402V62.9449ZM944.402 177.042H833.067L833.067 288.839H944.402V177.042ZM944.402 291.139H833.067V402.936H944.402V291.139ZM944.402 405.236H833.067V517.032H944.402V405.236ZM944.402 519.332H833.067V631.129H944.402V519.332ZM830.767 519.332V631.129H719.432V519.332H830.767ZM830.767 405.236V517.032H719.432V405.236H830.767ZM830.767 291.139V402.936H719.432V291.139H830.767ZM830.767 177.042V288.839H719.432L719.432 177.042H830.767ZM830.767 62.9449V174.742H719.432V62.9449H830.767ZM830.767 -51.1519V60.6449H719.432V-51.1519H830.767ZM830.767 -165.249V-53.4519H719.432V-165.249H830.767ZM717.132 -165.249H605.797V-53.4519H717.132V-165.249ZM717.132 -51.1519H605.797V60.6449H717.132V-51.1519ZM717.132 62.9449H605.797V174.742H717.132V62.9449ZM717.132 177.042H605.797L605.797 288.839H717.132V177.042ZM717.132 291.139H605.797V402.936H717.132V291.139ZM717.132 405.236H605.797V517.032H717.132V405.236ZM717.132 519.332H605.797V631.129H717.132V519.332ZM603.497 519.332V631.129H493.884V519.332H603.497ZM603.497 405.236V517.032H493.884V405.236H603.497ZM603.497 291.139V402.936H493.884V291.139H603.497ZM603.497 177.042V288.839H493.884L493.884 177.042H603.497ZM603.497 62.9449V174.742H493.884V62.9449H603.497ZM603.497 -51.1519V60.6449H493.884V-51.1519H603.497ZM603.497 -165.249V-53.4519H493.884V-165.249H603.497ZM491.584 -165.249H380.249V-53.4519H491.584V-165.249ZM491.584 -51.1519H380.249V60.6449H491.584V-51.1519ZM491.584 62.9449H380.249V174.742H491.584V62.9449ZM491.584 177.042H380.249L380.249 288.839H491.584V177.042ZM491.584 291.139H380.249V402.936H491.584V291.139ZM491.584 405.236H380.249V517.032H491.584V405.236ZM491.584 519.332H380.249V631.129H491.584V519.332ZM377.949 519.332V631.129H266.614V519.332H377.949ZM377.949 405.236V517.032H266.614V405.236H377.949ZM377.949 291.139V402.936H266.614V291.139H377.949ZM377.949 177.042V288.839H266.614L266.614 177.042H377.949ZM377.949 62.9449V174.742H266.614V62.9449H377.949ZM377.949 -51.1519V60.6449H266.614V-51.1519H377.949ZM377.949 -165.249V-53.4519H266.614V-165.249H377.949ZM264.314 -165.249H154.701V-53.4519H264.314V-165.249ZM264.314 -51.1519H154.701V60.6449H264.314V-51.1519ZM264.314 62.9449H154.701V174.742H264.314V62.9449ZM264.314 177.042H154.701L154.701 288.839H264.314V177.042ZM264.314 291.139H154.701V402.936H264.314V291.139ZM264.314 405.236H154.701V517.032H264.314V405.236ZM264.314 519.332H154.701V631.129H264.314V519.332ZM152.401 519.332V631.129H41.066V519.332H152.401ZM152.401 405.236V517.032H41.066V405.236H152.401ZM152.401 291.139V402.936H41.066V291.139H152.401ZM152.401 177.042L152.401 288.839H41.066L41.066 177.042H152.401ZM152.401 62.9449V174.742H41.066V62.9449H152.401ZM152.401 -51.1519V60.6449H41.066V-51.1519H152.401ZM152.401 -165.249V-53.4519H41.066V-165.249H152.401ZM38.7661 -165.249H-72.5688V-53.4519H38.7661V-165.249ZM38.7661 -51.1519H-72.5688V60.6449H38.7661V-51.1519ZM38.7661 62.9449H-72.5688V174.742H38.7661V62.9449ZM38.7661 177.042H-72.5688L-72.5689 288.839H38.766L38.7661 177.042ZM38.766 291.139H-72.5689V402.936H38.766V291.139ZM38.766 405.236H-72.5689V517.032H38.766V405.236ZM38.766 519.332H-72.5689V631.129H38.766V519.332ZM-74.8689 519.332V631.129H-186.204V519.332H-74.8689ZM-74.8689 405.236V517.032H-186.204V405.236H-74.8689ZM-74.8689 291.139V402.936H-186.204V291.139H-74.8689ZM-74.8688 177.042L-74.8689 288.839H-186.204L-186.204 177.042H-74.8688ZM-74.8688 62.9449V174.742H-186.204V62.9449H-74.8688ZM-74.8688 -51.1519V60.6449H-186.204V-51.1519H-74.8688ZM-74.8688 -165.249V-53.4519H-186.204V-165.249H-74.8688ZM-188.504 -165.249H-298.117V-53.4519H-188.504V-165.249ZM-188.504 -51.1519H-298.117L-298.117 60.6449H-188.504V-51.1519ZM-188.504 62.9449H-298.117V174.742H-188.504V62.9449ZM-188.504 177.042H-298.117V288.839H-188.504L-188.504 177.042ZM-188.504 291.139H-298.117V402.936H-188.504V291.139ZM-188.504 405.236H-298.117V517.032H-188.504V405.236ZM-188.504 519.332H-298.117L-298.117 631.129H-188.504V519.332ZM-300.417 519.332L-300.417 631.129H-411.752V519.332H-300.417ZM-300.417 405.236V517.032H-411.752V405.236H-300.417ZM-300.417 291.139V402.936H-411.752V291.139H-300.417ZM-300.417 177.042V288.839H-411.752L-411.752 177.042H-300.417ZM-300.417 62.9449V174.742H-411.752V62.9449H-300.417ZM-300.417 -51.1519L-300.417 60.6449H-411.752V-51.1519H-300.417ZM-300.417 -165.249V-53.4519H-411.752V-165.249H-300.417ZM-414.052 -165.249H-525.387V-53.4519H-414.052V-165.249ZM-414.052 -51.1519H-525.387V60.6449H-414.052L-414.052 -51.1519ZM-414.052 62.9449H-525.387V174.742H-414.052V62.9449ZM-414.052 177.042H-525.387L-525.387 288.839H-414.052V177.042ZM-414.052 291.139H-525.387V402.936H-414.052V291.139ZM-414.052 405.236H-525.387V517.032H-414.052V405.236ZM-414.052 519.332H-525.387V631.129H-414.052L-414.052 519.332ZM-527.687 519.332L-527.687 631.129H-639.022V519.332H-527.687ZM-527.687 405.236V517.032H-639.022V405.236H-527.687ZM-527.687 291.139V402.936H-639.022L-639.022 291.139H-527.687ZM-527.687 177.042V288.839H-639.022V177.042H-527.687ZM-527.687 62.9449V174.742H-639.022L-639.022 62.9449H-527.687ZM-527.687 -51.1519L-527.687 60.6449H-639.022V-51.1519H-527.687ZM-527.687 -165.249V-53.4519H-639.022V-165.249H-527.687Z" fill="url(#paint3_radial_3_658)"/>
<path opacity="0.7" d="M-474.885 457.364L-411.538 440.885C-408.261 440.032 -405.161 438.604 -402.384 436.666L-328.084 384.834C-323.289 381.489 -317.583 379.695 -311.736 379.695H-265.26C-258.245 379.695 -251.474 377.114 -246.239 372.443L-184.404 317.277C-174.97 308.86 -161.126 307.644 -150.369 314.287L-25.4062 391.459C-14.759 398.034 -1.07219 396.916 8.36678 388.7L56.8903 346.464C63.6525 340.579 72.7853 338.208 81.5567 340.061L136.152 351.596C143.512 353.151 151.188 351.742 157.514 347.673L228.904 301.76C238.75 295.427 251.463 295.742 260.985 302.553L303.936 333.281C314.7 340.982 329.343 340.283 339.324 331.592L360.868 312.834C367.885 306.725 377.436 304.414 386.469 306.64L434.473 318.471C443.106 320.598 452.237 318.586 459.176 313.027L515.115 268.21C519.802 264.454 525.553 262.271 531.552 261.971L595.215 258.784C598.633 258.613 602.055 259.057 605.316 260.096L658.568 277.059C669.445 280.524 681.34 277.183 688.821 268.561L741.101 208.313C749.139 199.05 762.191 195.95 773.536 200.608L805.514 213.74C872.339 241.181 948.936 228.461 1003.3 180.894L1039.1 149.577C1049.49 140.489 1064.88 140.124 1075.69 148.711L1117.82 182.192C1126.06 188.733 1137.21 190.225 1146.87 186.077L1203.07 161.947C1207.13 160.202 1210.74 157.538 1213.6 154.164L1279.5 76.3894" stroke="url(#paint4_linear_3_658)" stroke-width="3.80974" stroke-linecap="round" stroke-linejoin="round"/>
<path opacity="0.4" d="M-469.171 417.361L-402.731 390.274C-395.895 387.488 -388.246 387.454 -381.387 390.182L-325.456 412.422C-317.583 415.552 -308.727 415.027 -301.279 410.989L-252.89 384.751C-246.397 381.231 -238.793 380.361 -231.672 382.325L-180.347 396.483C-170.644 399.16 -160.249 396.534 -152.981 389.57L-106.702 345.228C-97.2078 336.131 -82.731 334.688 -71.6278 341.732L-32.0241 366.856C-20.6228 374.089 -5.71472 372.354 3.72068 362.696L53.1334 312.117C61.7427 303.305 75.031 301.003 86.1029 306.406L120.792 323.334C129.034 327.356 138.704 327.177 146.792 322.855L197.342 295.837C208.373 289.942 221.956 291.906 230.865 300.684L293.858 362.756C306.262 374.978 326.62 373.358 336.935 359.328L436.784 223.509C439.751 219.474 443.726 216.289 448.311 214.275L654.741 123.568C662.357 120.221 671.054 120.36 678.559 123.948L858.007 209.73L922.079 234.744C949.144 245.31 979.686 241.773 1003.62 225.302L1117.59 146.87" stroke="url(#paint5_linear_3_658)" stroke-width="3.80974" stroke-linecap="round" stroke-linejoin="round"/>
<g filter="url(#filter0_b_3_658)">
<path d="M506.1 240.35C506.595 242.655 508.395 244.455 510.7 244.95C508.395 245.445 506.595 247.245 506.1 249.55C505.605 247.245 503.805 245.445 501.5 244.95C503.805 244.455 505.605 242.655 506.1 240.35Z" fill="url(#paint6_linear_3_658)"/>
</g>
<g filter="url(#filter1_b_3_658)">
<path d="M523.153 246.641C524.148 255.401 530.187 262.764 538.584 265.453C529.824 266.448 522.461 272.487 519.772 280.884C518.777 272.124 512.737 264.761 504.341 262.071C513.101 261.077 520.464 255.037 523.153 246.641Z" fill="url(#paint7_linear_3_658)"/>
</g>
<g filter="url(#filter2_b_3_658)">
<path d="M58.175 328.9C59.9691 337.255 66.4953 343.781 74.85 345.575C66.4953 347.369 59.9691 353.895 58.175 362.25C56.3809 353.895 49.8547 347.369 41.5 345.575C49.8547 343.781 56.3809 337.255 58.175 328.9Z" fill="url(#paint8_linear_3_658)"/>
</g>
<g filter="url(#filter3_b_3_658)">
<path d="M49.55 365.7C50.4161 369.733 53.5667 372.884 57.6 373.75C53.5667 374.616 50.4161 377.767 49.55 381.8C48.6839 377.767 45.5333 374.616 41.5 373.75C45.5333 372.884 48.6839 369.733 49.55 365.7Z" fill="url(#paint9_linear_3_658)"/>
</g>
<g filter="url(#filter4_b_3_658)">
<g style="mix-blend-mode:screen" opacity="0.05" filter="url(#filter5_b_3_658)">
<circle cx="176.05" cy="282.9" r="127.65" fill="white" fill-opacity="0.4"/>
</g>
<g style="mix-blend-mode:screen" opacity="0.15" filter="url(#filter6_b_3_658)">
<circle cx="176.05" cy="282.9" r="89.7" fill="white" fill-opacity="0.4"/>
</g>
<circle opacity="0.2" cx="174.121" cy="280.718" r="45.0528" fill="white" fill-opacity="0.6"/>
<circle cx="174.121" cy="280.718" r="15.239" fill="white" fill-opacity="0.6"/>
</g>
<g style="mix-blend-mode:color-burn">
<rect width="1297.2" height="552" transform="translate(-361)" fill="white" fill-opacity="0.3"/>
</g>
<rect x="128.9" y="233.45" width="349.6" height="95.45" rx="47.725" fill="white" fill-opacity="0.2"/>
<g filter="url(#filter7_b_3_658)">
<rect x="145.967" y="249.55" width="316.2" height="63.6" rx="31.8" fill="white"/>
<path fill-rule="evenodd" clip-rule="evenodd" d="M188.517 269.85C188.888 271.579 190.239 272.929 191.967 273.3C190.239 273.671 188.888 275.022 188.517 276.75C188.146 275.022 186.796 273.671 185.067 273.3C186.796 272.929 188.146 271.579 188.517 269.85ZM177.1 270.08C178.148 274.961 181.962 278.775 186.843 279.823C181.962 280.871 178.148 284.684 177.1 289.566C176.052 284.684 172.239 280.871 167.357 279.823C172.239 278.775 176.052 274.961 177.1 270.08ZM191.967 288.25C189.663 287.755 187.862 285.955 187.367 283.65C186.872 285.955 185.072 287.755 182.767 288.25C185.072 288.745 186.872 290.545 187.367 292.85C187.862 290.545 189.663 288.745 191.967 288.25Z" fill="#387FF5"/>
<path d="M219.198 278.062H216.65C216.552 277.518 216.369 277.039 216.102 276.625C215.836 276.211 215.509 275.86 215.122 275.571C214.736 275.283 214.303 275.065 213.824 274.918C213.35 274.771 212.846 274.697 212.313 274.697C211.349 274.697 210.486 274.94 209.724 275.424C208.967 275.909 208.368 276.619 207.927 277.556C207.491 278.492 207.273 279.636 207.273 280.986C207.273 282.348 207.491 283.497 207.927 284.433C208.368 285.37 208.969 286.077 209.732 286.557C210.494 287.036 211.352 287.275 212.305 287.275C212.833 287.275 213.334 287.205 213.807 287.063C214.287 286.916 214.719 286.701 215.106 286.418C215.493 286.135 215.819 285.789 216.086 285.381C216.358 284.967 216.546 284.493 216.65 283.959L219.198 283.968C219.062 284.79 218.798 285.547 218.406 286.238C218.019 286.924 217.521 287.518 216.911 288.019C216.307 288.514 215.615 288.898 214.836 289.17C214.058 289.443 213.208 289.579 212.288 289.579C210.84 289.579 209.549 289.236 208.417 288.55C207.284 287.858 206.391 286.87 205.738 285.585C205.09 284.3 204.766 282.767 204.766 280.986C204.766 279.2 205.093 277.668 205.746 276.388C206.399 275.103 207.292 274.117 208.425 273.431C209.557 272.74 210.845 272.394 212.288 272.394C213.176 272.394 214.003 272.522 214.771 272.778C215.544 273.028 216.239 273.399 216.854 273.889C217.469 274.373 217.978 274.967 218.381 275.669C218.784 276.366 219.056 277.164 219.198 278.062ZM227.306 289.603C226.13 289.603 225.104 289.334 224.227 288.795C223.351 288.256 222.67 287.501 222.185 286.532C221.701 285.563 221.458 284.43 221.458 283.134C221.458 281.833 221.701 280.695 222.185 279.72C222.67 278.746 223.351 277.989 224.227 277.45C225.104 276.911 226.13 276.641 227.306 276.641C228.483 276.641 229.509 276.911 230.386 277.45C231.262 277.989 231.943 278.746 232.427 279.72C232.912 280.695 233.154 281.833 233.154 283.134C233.154 284.43 232.912 285.563 232.427 286.532C231.943 287.501 231.262 288.256 230.386 288.795C229.509 289.334 228.483 289.603 227.306 289.603ZM227.315 287.553C228.077 287.553 228.708 287.352 229.209 286.949C229.71 286.546 230.081 286.009 230.32 285.34C230.565 284.67 230.688 283.932 230.688 283.126C230.688 282.326 230.565 281.591 230.32 280.921C230.081 280.246 229.71 279.704 229.209 279.296C228.708 278.887 228.077 278.683 227.315 278.683C226.547 278.683 225.91 278.887 225.403 279.296C224.902 279.704 224.529 280.246 224.284 280.921C224.045 281.591 223.925 282.326 223.925 283.126C223.925 283.932 224.045 284.67 224.284 285.34C224.529 286.009 224.902 286.546 225.403 286.949C225.91 287.352 226.547 287.553 227.315 287.553ZM238.322 281.901V289.35H235.88V276.805H238.224V278.846H238.38C238.668 278.182 239.12 277.649 239.735 277.246C240.356 276.843 241.138 276.641 242.08 276.641C242.934 276.641 243.683 276.821 244.326 277.18C244.968 277.534 245.466 278.062 245.82 278.765C246.174 279.467 246.351 280.336 246.351 281.37V289.35H243.909V281.664C243.909 280.755 243.672 280.044 243.199 279.533C242.725 279.015 242.074 278.757 241.246 278.757C240.68 278.757 240.177 278.879 239.735 279.124C239.3 279.369 238.954 279.729 238.698 280.202C238.448 280.671 238.322 281.237 238.322 281.901ZM252.069 281.901V289.35H249.626V276.805H251.971V278.846H252.126C252.414 278.182 252.866 277.649 253.482 277.246C254.102 276.843 254.884 276.641 255.826 276.641C256.681 276.641 257.429 276.821 258.072 277.18C258.714 277.534 259.212 278.062 259.566 278.765C259.92 279.467 260.097 280.336 260.097 281.37V289.35H257.655V281.664C257.655 280.755 257.418 280.044 256.945 279.533C256.471 279.015 255.82 278.757 254.993 278.757C254.426 278.757 253.923 278.879 253.482 279.124C253.046 279.369 252.7 279.729 252.444 280.202C252.194 280.671 252.069 281.237 252.069 281.901ZM268.779 289.603C267.543 289.603 266.479 289.339 265.586 288.811C264.698 288.277 264.012 287.529 263.528 286.565C263.049 285.596 262.809 284.46 262.809 283.159C262.809 281.874 263.049 280.741 263.528 279.761C264.012 278.781 264.688 278.016 265.553 277.466C266.424 276.916 267.443 276.641 268.608 276.641C269.316 276.641 270.002 276.758 270.666 276.992C271.331 277.227 271.927 277.594 272.455 278.095C272.983 278.596 273.4 279.247 273.705 280.047C274.009 280.842 274.162 281.809 274.162 282.947V283.812H264.189V281.983H271.769C271.769 281.34 271.638 280.771 271.377 280.276C271.115 279.775 270.748 279.38 270.274 279.091C269.806 278.803 269.256 278.659 268.624 278.659C267.938 278.659 267.339 278.827 266.827 279.165C266.321 279.497 265.929 279.933 265.651 280.472C265.379 281.005 265.243 281.585 265.243 282.211V283.641C265.243 284.479 265.39 285.193 265.684 285.781C265.983 286.369 266.4 286.818 266.934 287.128C267.467 287.433 268.091 287.586 268.804 287.586C269.267 287.586 269.689 287.52 270.07 287.39C270.451 287.254 270.781 287.052 271.058 286.785C271.336 286.519 271.548 286.189 271.695 285.797L274.007 286.214C273.822 286.894 273.489 287.49 273.01 288.002C272.537 288.509 271.94 288.903 271.222 289.187C270.508 289.464 269.694 289.603 268.779 289.603ZM282.156 289.603C280.942 289.603 279.896 289.328 279.02 288.778C278.148 288.223 277.479 287.458 277.01 286.483C276.542 285.508 276.308 284.392 276.308 283.134C276.308 281.86 276.548 280.736 277.027 279.761C277.506 278.781 278.181 278.016 279.052 277.466C279.924 276.916 280.95 276.641 282.131 276.641C283.084 276.641 283.934 276.818 284.68 277.172C285.426 277.521 286.027 278.011 286.485 278.642C286.948 279.274 287.223 280.012 287.31 280.856H284.933C284.802 280.268 284.503 279.761 284.035 279.336C283.572 278.912 282.951 278.699 282.172 278.699C281.492 278.699 280.895 278.879 280.384 279.238C279.877 279.592 279.482 280.099 279.199 280.758C278.916 281.411 278.775 282.184 278.775 283.077C278.775 283.992 278.913 284.782 279.191 285.446C279.469 286.11 279.861 286.625 280.367 286.99C280.879 287.354 281.481 287.537 282.172 287.537C282.635 287.537 283.054 287.452 283.43 287.284C283.811 287.109 284.13 286.862 284.386 286.54C284.647 286.219 284.83 285.832 284.933 285.381H287.31C287.223 286.192 286.959 286.916 286.518 287.553C286.076 288.19 285.486 288.691 284.745 289.056C284.01 289.421 283.147 289.603 282.156 289.603ZM295.778 276.805V278.765H288.925V276.805H295.778ZM290.763 273.799H293.205V285.666C293.205 286.14 293.276 286.497 293.417 286.736C293.559 286.97 293.741 287.131 293.964 287.218C294.193 287.3 294.441 287.341 294.708 287.341C294.904 287.341 295.075 287.327 295.222 287.3C295.369 287.273 295.483 287.251 295.565 287.235L296.006 289.252C295.865 289.306 295.663 289.361 295.402 289.415C295.14 289.475 294.814 289.508 294.422 289.513C293.779 289.524 293.18 289.41 292.625 289.17C292.069 288.931 291.62 288.56 291.277 288.059C290.934 287.559 290.763 286.93 290.763 286.173V273.799ZM309.434 289.587C308.312 289.587 307.346 289.383 306.534 288.974C305.728 288.566 305.108 288.01 304.672 287.308C304.236 286.6 304.019 285.8 304.019 284.907C304.019 284.226 304.16 283.622 304.443 283.094C304.727 282.56 305.121 282.067 305.628 281.615C306.134 281.163 306.719 280.709 307.384 280.251L310.079 278.348C310.536 278.049 310.893 277.733 311.149 277.401C311.405 277.063 311.533 276.647 311.533 276.151C311.533 275.759 311.364 275.383 311.026 275.024C310.689 274.665 310.237 274.485 309.671 274.485C309.279 274.485 308.933 274.58 308.633 274.771C308.339 274.961 308.108 275.206 307.939 275.506C307.776 275.8 307.694 276.11 307.694 276.437C307.694 276.818 307.798 277.202 308.004 277.589C308.217 277.975 308.489 278.375 308.821 278.789C309.153 279.198 309.502 279.622 309.867 280.063L317.634 289.35H314.873L308.446 281.795C307.906 281.158 307.405 280.559 306.943 279.998C306.48 279.432 306.104 278.86 305.816 278.283C305.532 277.7 305.391 277.071 305.391 276.396C305.391 275.628 305.565 274.948 305.914 274.354C306.267 273.755 306.76 273.287 307.392 272.949C308.024 272.612 308.764 272.443 309.613 272.443C310.474 272.443 311.212 272.612 311.827 272.949C312.448 273.282 312.924 273.725 313.256 274.281C313.594 274.831 313.763 275.432 313.763 276.086C313.763 276.881 313.564 277.583 313.166 278.193C312.774 278.797 312.233 279.353 311.541 279.859L308.184 282.334C307.531 282.813 307.076 283.287 306.82 283.755C306.57 284.218 306.444 284.58 306.444 284.841C306.444 285.321 306.567 285.764 306.812 286.173C307.062 286.581 307.411 286.908 307.857 287.153C308.309 287.398 308.838 287.52 309.442 287.52C310.063 287.52 310.667 287.387 311.255 287.12C311.849 286.848 312.385 286.459 312.864 285.952C313.349 285.446 313.733 284.839 314.016 284.131C314.299 283.423 314.441 282.631 314.441 281.754H316.646C316.646 282.832 316.523 283.744 316.278 284.49C316.033 285.231 315.736 285.835 315.388 286.303C315.045 286.766 314.721 287.128 314.416 287.39C314.318 287.477 314.225 287.564 314.138 287.651C314.051 287.738 313.959 287.825 313.861 287.912C313.294 288.484 312.608 288.906 311.802 289.178C311.002 289.451 310.212 289.587 309.434 289.587ZM334.953 277.017C334.866 276.244 334.507 275.645 333.875 275.22C333.244 274.79 332.449 274.575 331.49 274.575C330.804 274.575 330.211 274.684 329.71 274.901C329.209 275.114 328.82 275.408 328.542 275.784C328.27 276.154 328.134 276.576 328.134 277.05C328.134 277.447 328.226 277.79 328.411 278.079C328.602 278.367 328.85 278.61 329.154 278.806C329.465 278.996 329.797 279.157 330.151 279.287C330.505 279.413 330.845 279.516 331.172 279.598L332.805 280.023C333.339 280.153 333.886 280.33 334.447 280.553C335.008 280.777 335.528 281.071 336.007 281.436C336.486 281.8 336.873 282.252 337.167 282.791C337.466 283.33 337.616 283.976 337.616 284.727C337.616 285.675 337.371 286.516 336.881 287.251C336.396 287.986 335.691 288.566 334.766 288.991C333.845 289.415 332.732 289.628 331.425 289.628C330.173 289.628 329.089 289.429 328.174 289.031C327.26 288.634 326.544 288.07 326.026 287.341C325.509 286.606 325.223 285.734 325.169 284.727H327.701C327.75 285.332 327.946 285.835 328.289 286.238C328.637 286.636 329.081 286.932 329.62 287.128C330.165 287.319 330.761 287.414 331.409 287.414C332.122 287.414 332.756 287.303 333.312 287.079C333.873 286.851 334.314 286.535 334.635 286.132C334.956 285.724 335.117 285.247 335.117 284.703C335.117 284.207 334.975 283.801 334.692 283.486C334.414 283.17 334.036 282.908 333.557 282.702C333.083 282.495 332.547 282.312 331.948 282.154L329.971 281.615C328.632 281.25 327.57 280.714 326.786 280.006C326.007 279.298 325.618 278.362 325.618 277.197C325.618 276.233 325.879 275.392 326.402 274.673C326.925 273.954 327.633 273.396 328.526 272.998C329.419 272.595 330.426 272.394 331.548 272.394C332.68 272.394 333.679 272.593 334.545 272.99C335.416 273.388 336.102 273.935 336.603 274.632C337.104 275.323 337.366 276.118 337.387 277.017H334.953ZM346.292 276.805V278.765H339.44V276.805H346.292ZM341.277 273.799H343.719V285.666C343.719 286.14 343.79 286.497 343.932 286.736C344.073 286.97 344.256 287.131 344.479 287.218C344.708 287.3 344.955 287.341 345.222 287.341C345.418 287.341 345.59 287.327 345.737 287.3C345.884 287.273 345.998 287.251 346.08 287.235L346.521 289.252C346.379 289.306 346.178 289.361 345.916 289.415C345.655 289.475 345.328 289.508 344.936 289.513C344.294 289.524 343.695 289.41 343.139 289.17C342.584 288.931 342.135 288.56 341.792 288.059C341.449 287.559 341.277 286.93 341.277 286.173V273.799ZM348.994 289.35V276.805H351.354V278.797H351.485C351.713 278.122 352.116 277.591 352.694 277.205C353.276 276.813 353.935 276.617 354.67 276.617C354.823 276.617 355.002 276.622 355.209 276.633C355.422 276.644 355.588 276.658 355.707 276.674V279.01C355.609 278.983 355.435 278.953 355.185 278.92C354.934 278.882 354.684 278.863 354.433 278.863C353.856 278.863 353.342 278.985 352.89 279.23C352.443 279.47 352.089 279.805 351.828 280.235C351.566 280.66 351.436 281.144 351.436 281.689V289.35H348.994ZM362.779 289.603C361.542 289.603 360.478 289.339 359.585 288.811C358.697 288.277 358.011 287.529 357.527 286.565C357.048 285.596 356.808 284.46 356.808 283.159C356.808 281.874 357.048 280.741 357.527 279.761C358.011 278.781 358.687 278.016 359.552 277.466C360.424 276.916 361.442 276.641 362.607 276.641C363.315 276.641 364.001 276.758 364.665 276.992C365.33 277.227 365.926 277.594 366.454 278.095C366.982 278.596 367.399 279.247 367.704 280.047C368.009 280.842 368.161 281.809 368.161 282.947V283.812H358.188V281.983H365.768C365.768 281.34 365.637 280.771 365.376 280.276C365.114 279.775 364.747 279.38 364.273 279.091C363.805 278.803 363.255 278.659 362.623 278.659C361.937 278.659 361.338 278.827 360.826 279.165C360.32 279.497 359.928 279.933 359.65 280.472C359.378 281.005 359.242 281.585 359.242 282.211V283.641C359.242 284.479 359.389 285.193 359.683 285.781C359.982 286.369 360.399 286.818 360.933 287.128C361.466 287.433 362.09 287.586 362.803 287.586C363.266 287.586 363.688 287.52 364.069 287.39C364.45 287.254 364.78 287.052 365.057 286.785C365.335 286.519 365.547 286.189 365.694 285.797L368.006 286.214C367.821 286.894 367.488 287.49 367.009 288.002C366.536 288.509 365.939 288.903 365.221 289.187C364.507 289.464 363.693 289.603 362.779 289.603ZM374.521 289.628C373.727 289.628 373.008 289.481 372.365 289.187C371.723 288.887 371.214 288.454 370.838 287.888C370.468 287.322 370.283 286.627 370.283 285.805C370.283 285.097 370.419 284.515 370.691 284.057C370.963 283.6 371.331 283.238 371.794 282.971C372.256 282.704 372.774 282.503 373.345 282.367C373.917 282.231 374.5 282.127 375.093 282.056C375.845 281.969 376.454 281.898 376.923 281.844C377.391 281.784 377.731 281.689 377.944 281.558C378.156 281.427 378.262 281.215 378.262 280.921V280.864C378.262 280.151 378.061 279.598 377.658 279.206C377.26 278.814 376.667 278.618 375.877 278.618C375.055 278.618 374.407 278.8 373.933 279.165C373.465 279.524 373.141 279.925 372.961 280.366L370.666 279.843C370.939 279.081 371.336 278.465 371.859 277.997C372.387 277.523 372.994 277.18 373.68 276.968C374.366 276.75 375.088 276.641 375.845 276.641C376.346 276.641 376.876 276.701 377.437 276.821C378.004 276.935 378.532 277.148 379.022 277.458C379.517 277.768 379.923 278.212 380.239 278.789C380.555 279.361 380.713 280.104 380.713 281.019V289.35H378.328V287.635H378.23C378.072 287.951 377.835 288.261 377.519 288.566C377.203 288.871 376.798 289.124 376.302 289.325C375.807 289.527 375.213 289.628 374.521 289.628ZM375.052 287.667C375.728 287.667 376.305 287.534 376.784 287.267C377.269 287 377.636 286.652 377.887 286.222C378.142 285.786 378.27 285.321 378.27 284.825V283.208C378.183 283.295 378.015 283.377 377.764 283.453C377.519 283.524 377.239 283.586 376.923 283.641C376.607 283.69 376.299 283.736 376 283.78C375.7 283.818 375.45 283.85 375.248 283.878C374.775 283.938 374.342 284.038 373.95 284.18C373.563 284.321 373.253 284.526 373.019 284.792C372.79 285.054 372.676 285.402 372.676 285.838C372.676 286.442 372.899 286.9 373.345 287.21C373.792 287.515 374.361 287.667 375.052 287.667ZM383.965 289.35V276.805H386.309V278.846H386.465C386.726 278.155 387.153 277.616 387.747 277.229C388.34 276.837 389.051 276.641 389.879 276.641C390.717 276.641 391.42 276.837 391.986 277.229C392.558 277.621 392.98 278.16 393.252 278.846H393.383C393.682 278.177 394.158 277.643 394.812 277.246C395.465 276.843 396.244 276.641 397.148 276.641C398.286 276.641 399.214 276.998 399.933 277.711C400.657 278.424 401.019 279.5 401.019 280.937V289.35H398.577V281.166C398.577 280.317 398.346 279.701 397.883 279.32C397.42 278.939 396.867 278.748 396.225 278.748C395.43 278.748 394.812 278.993 394.371 279.483C393.93 279.968 393.709 280.592 393.709 281.354V289.35H391.275V281.011C391.275 280.33 391.063 279.783 390.638 279.369C390.214 278.955 389.661 278.748 388.98 278.748C388.517 278.748 388.09 278.871 387.698 279.116C387.311 279.356 386.998 279.69 386.759 280.121C386.524 280.551 386.407 281.049 386.407 281.615V289.35H383.965ZM406.735 272.623V289.35H404.292V272.623H406.735ZM410.02 289.35V276.805H412.462V289.35H410.02ZM411.253 274.869C410.829 274.869 410.464 274.727 410.159 274.444C409.859 274.155 409.71 273.812 409.71 273.415C409.71 273.012 409.859 272.669 410.159 272.386C410.464 272.097 410.829 271.953 411.253 271.953C411.678 271.953 412.04 272.097 412.34 272.386C412.645 272.669 412.797 273.012 412.797 273.415C412.797 273.812 412.645 274.155 412.34 274.444C412.04 274.727 411.678 274.869 411.253 274.869ZM418.19 281.901V289.35H415.748V276.805H418.092V278.846H418.247C418.535 278.182 418.987 277.649 419.603 277.246C420.223 276.843 421.005 276.641 421.947 276.641C422.802 276.641 423.55 276.821 424.193 277.18C424.835 277.534 425.334 278.062 425.688 278.765C426.041 279.467 426.218 280.336 426.218 281.37V289.35H423.776V281.664C423.776 280.755 423.539 280.044 423.066 279.533C422.592 279.015 421.941 278.757 421.114 278.757C420.547 278.757 420.044 278.879 419.603 279.124C419.167 279.369 418.821 279.729 418.565 280.202C418.315 280.671 418.19 281.237 418.19 281.901ZM434.901 289.603C433.665 289.603 432.6 289.339 431.707 288.811C430.819 288.277 430.133 287.529 429.649 286.565C429.17 285.596 428.93 284.46 428.93 283.159C428.93 281.874 429.17 280.741 429.649 279.761C430.133 278.781 430.809 278.016 431.674 277.466C432.546 276.916 433.564 276.641 434.729 276.641C435.437 276.641 436.123 276.758 436.787 276.992C437.452 277.227 438.048 277.594 438.576 278.095C439.104 278.596 439.521 279.247 439.826 280.047C440.131 280.842 440.283 281.809 440.283 282.947V283.812H430.31V281.983H437.89C437.89 281.34 437.759 280.771 437.498 280.276C437.237 279.775 436.869 279.38 436.395 279.091C435.927 278.803 435.377 278.659 434.745 278.659C434.059 278.659 433.46 278.827 432.949 279.165C432.442 279.497 432.05 279.933 431.772 280.472C431.5 281.005 431.364 281.585 431.364 282.211V283.641C431.364 284.479 431.511 285.193 431.805 285.781C432.105 286.369 432.521 286.818 433.055 287.128C433.588 287.433 434.212 287.586 434.925 287.586C435.388 287.586 435.81 287.52 436.191 287.39C436.572 287.254 436.902 287.052 437.179 286.785C437.457 286.519 437.669 286.189 437.816 285.797L440.128 286.214C439.943 286.894 439.611 287.49 439.131 288.002C438.658 288.509 438.061 288.903 437.343 289.187C436.629 289.464 435.815 289.603 434.901 289.603Z" fill="#1C1F25"/>
</g>
</g>
</g>
<defs>
<filter id="filter0_b_3_658" x="492.3" y="231.15" width="27.6" height="27.6" filterUnits="userSpaceOnUse" color-interpolation-filters="sRGB">
<feFlood flood-opacity="0" result="BackgroundImageFix"/>
<feGaussianBlur in="BackgroundImageFix" stdDeviation="4.6"/>
<feComposite in2="SourceAlpha" operator="in" result="effect1_backgroundBlur_3_658"/>
<feBlend mode="normal" in="SourceGraphic" in2="effect1_backgroundBlur_3_658" result="shape"/>
</filter>
<filter id="filter1_b_3_658" x="495.141" y="237.441" width="52.6431" height="52.643" filterUnits="userSpaceOnUse" color-interpolation-filters="sRGB">
<feFlood flood-opacity="0" result="BackgroundImageFix"/>
<feGaussianBlur in="BackgroundImageFix" stdDeviation="4.6"/>
<feComposite in2="SourceAlpha" operator="in" result="effect1_backgroundBlur_3_658"/>
<feBlend mode="normal" in="SourceGraphic" in2="effect1_backgroundBlur_3_658" result="shape"/>
</filter>
<filter id="filter2_b_3_658" x="32.3" y="319.7" width="51.75" height="51.75" filterUnits="userSpaceOnUse" color-interpolation-filters="sRGB">
<feFlood flood-opacity="0" result="BackgroundImageFix"/>
<feGaussianBlur in="BackgroundImageFix" stdDeviation="4.6"/>
<feComposite in2="SourceAlpha" operator="in" result="effect1_backgroundBlur_3_658"/>
<feBlend mode="normal" in="SourceGraphic" in2="effect1_backgroundBlur_3_658" result="shape"/>
</filter>
<filter id="filter3_b_3_658" x="32.3" y="356.5" width="34.5" height="34.5" filterUnits="userSpaceOnUse" color-interpolation-filters="sRGB">
<feFlood flood-opacity="0" result="BackgroundImageFix"/>
<feGaussianBlur in="BackgroundImageFix" stdDeviation="4.6"/>
<feComposite in2="SourceAlpha" operator="in" result="effect1_backgroundBlur_3_658"/>
<feBlend mode="normal" in="SourceGraphic" in2="effect1_backgroundBlur_3_658" result="shape"/>
</filter>
<filter id="filter4_b_3_658" x="35.75" y="142.6" width="280.6" height="280.6" filterUnits="userSpaceOnUse" color-interpolation-filters="sRGB">
<feFlood flood-opacity="0" result="BackgroundImageFix"/>
<feGaussianBlur in="BackgroundImageFix" stdDeviation="6.325"/>
<feComposite in2="SourceAlpha" operator="in" result="effect1_backgroundBlur_3_658"/>
<feBlend mode="normal" in="SourceGraphic" in2="effect1_backgroundBlur_3_658" result="shape"/>
</filter>
<filter id="filter5_b_3_658" x="20.8" y="127.65" width="310.5" height="310.5" filterUnits="userSpaceOnUse" color-interpolation-filters="sRGB">
<feFlood flood-opacity="0" result="BackgroundImageFix"/>
<feGaussianBlur in="BackgroundImageFix" stdDeviation="13.8"/>
<feComposite in2="SourceAlpha" operator="in" result="effect1_backgroundBlur_3_658"/>
<feBlend mode="normal" in="SourceGraphic" in2="effect1_backgroundBlur_3_658" result="shape"/>
</filter>
<filter id="filter6_b_3_658" x="58.75" y="165.6" width="234.6" height="234.6" filterUnits="userSpaceOnUse" color-interpolation-filters="sRGB">
<feFlood flood-opacity="0" result="BackgroundImageFix"/>
<feGaussianBlur in="BackgroundImageFix" stdDeviation="13.8"/>
<feComposite in2="SourceAlpha" operator="in" result="effect1_backgroundBlur_3_658"/>
<feBlend mode="normal" in="SourceGraphic" in2="effect1_backgroundBlur_3_658" result="shape"/>
</filter>
<filter id="filter7_b_3_658" x="135.617" y="239.2" width="336.9" height="84.3" filterUnits="userSpaceOnUse" color-interpolation-filters="sRGB">
<feFlood flood-opacity="0" result="BackgroundImageFix"/>
<feGaussianBlur in="BackgroundImageFix" stdDeviation="5.175"/>
<feComposite in2="SourceAlpha" operator="in" result="effect1_backgroundBlur_3_658"/>
<feBlend mode="normal" in="SourceGraphic" in2="effect1_backgroundBlur_3_658" result="shape"/>
</filter>
<linearGradient id="paint0_linear_3_658" x1="0" y1="0" x2="654.374" y2="130.251" gradientUnits="userSpaceOnUse">
<stop stop-color="#809FF0"/>
<stop offset="1" stop-color="#4C62C5"/>
</linearGradient>
<linearGradient id="paint1_linear_3_658" x1="0" y1="0" x2="1297.2" y2="552" gradientUnits="userSpaceOnUse">
<stop stop-color="#809FF0"/>
<stop offset="1" stop-color="#4C62C5"/>
</linearGradient>
<linearGradient id="paint2_linear_3_658" x1="-147.939" y1="541.492" x2="-65.663" y2="-155.488" gradientUnits="userSpaceOnUse">
<stop stop-color="white" stop-opacity="0.01"/>
<stop offset="0.177083" stop-color="white"/>
<stop offset="1" stop-color="white" stop-opacity="0.01"/>
</linearGradient>
<radialGradient id="paint3_radial_3_658" cx="0" cy="0" r="1" gradientUnits="userSpaceOnUse" gradientTransform="translate(259.841 1384.29) rotate(180) scale(1292.25 1226.4)">
<stop stop-color="#EDECF3"/>
<stop offset="1" stop-color="#E6E5F5" stop-opacity="0.01"/>
</radialGradient>
<linearGradient id="paint4_linear_3_658" x1="319.807" y1="647.851" x2="493.365" y2="-76.2158" gradientUnits="userSpaceOnUse">
<stop stop-color="white" stop-opacity="0.01"/>
<stop offset="0.0375866" stop-color="white" stop-opacity="0.615533"/>
<stop offset="0.0805049" stop-color="white" stop-opacity="0.767526"/>
<stop offset="0.146149" stop-color="white"/>
<stop offset="0.747659" stop-color="white"/>
<stop offset="0.842081" stop-color="white" stop-opacity="0.852977"/>
<stop offset="0.896184" stop-color="white" stop-opacity="0.768733"/>
<stop offset="0.927591" stop-color="white" stop-opacity="0.144475"/>
<stop offset="1" stop-color="white" stop-opacity="0.01"/>
</linearGradient>
<linearGradient id="paint5_linear_3_658" x1="-144.372" y1="510.829" x2="-91.322" y2="-22.49" gradientUnits="userSpaceOnUse">
<stop stop-color="white" stop-opacity="0.01"/>
<stop offset="0.177083" stop-color="white"/>
<stop offset="1" stop-color="white" stop-opacity="0.01"/>
</linearGradient>
<linearGradient id="paint6_linear_3_658" x1="504.632" y1="240.543" x2="504.632" y2="249.39" gradientUnits="userSpaceOnUse">
<stop stop-color="white" stop-opacity="0.83"/>
<stop offset="1" stop-color="white" stop-opacity="0.21"/>
</linearGradient>
<linearGradient id="paint7_linear_3_658" x1="517.617" y1="246.82" x2="514.365" y2="279.75" gradientUnits="userSpaceOnUse">
<stop stop-color="white" stop-opacity="0.83"/>
<stop offset="1" stop-color="white" stop-opacity="0.21"/>
</linearGradient>
<linearGradient id="paint8_linear_3_658" x1="52.8525" y1="329.6" x2="52.8525" y2="361.671" gradientUnits="userSpaceOnUse">
<stop stop-color="white" stop-opacity="0.83"/>
<stop offset="1" stop-color="white" stop-opacity="0.21"/>
</linearGradient>
<linearGradient id="paint9_linear_3_658" x1="46.9805" y1="366.038" x2="46.9805" y2="381.521" gradientUnits="userSpaceOnUse">
<stop stop-color="white" stop-opacity="0.83"/>
<stop offset="1" stop-color="white" stop-opacity="0.21"/>
</linearGradient>
<clipPath id="clip0_3_658">
<rect width="576" height="524" rx="24" fill="white"/>
</clipPath>
<clipPath id="clip1_3_658">
<rect width="1297.2" height="552" fill="white" transform="translate(-361)"/>
</clipPath>
</defs>
</svg>
