<svg width="579" height="460" viewBox="0 0 579 460" fill="none" xmlns="http://www.w3.org/2000/svg">
<rect x="202" y="129" width="212" height="212" rx="106" fill="#F5F9FF"/>
<g clip-path="url(#clip0_3_174)">
<rect x="267.837" y="237.235" width="300.606" height="216.921" rx="8.9053" fill="white"/>
<rect x="289.464" y="258.226" width="74.5494" height="9.70163" rx="4.85081" fill="#E5E8F0"/>
<rect x="289.464" y="274.566" width="127.653" height="7.65918" rx="3.82959" fill="#E5E8F0"/>
<line x1="289.464" y1="299.977" x2="701.652" y2="299.977" stroke="#E5E8F0" stroke-width="0.461707"/>
<g clip-path="url(#clip1_3_174)">
<line x1="313.528" y1="317.432" x2="517.136" y2="317.432" stroke="#9EA5BD" stroke-width="0.230853"/>
<line x1="313.528" y1="335.439" x2="517.136" y2="335.439" stroke="#9EA5BD" stroke-width="0.230853"/>
<line x1="313.528" y1="353.907" x2="517.136" y2="353.907" stroke="#9EA5BD" stroke-width="0.230853"/>
<line x1="313.528" y1="372.375" x2="517.136" y2="372.375" stroke="#9EA5BD" stroke-width="0.230853"/>
<line x1="313.528" y1="390.843" x2="517.136" y2="390.843" stroke="#9EA5BD" stroke-width="0.230853"/>
<line x1="313.528" y1="409.312" x2="517.136" y2="409.312" stroke="#9EA5BD" stroke-width="0.230853"/>
<rect x="282.132" y="312.93" width="26.0798" height="5.72484" rx="2.86242" fill="#E5E8F0"/>
<rect x="282.132" y="331.823" width="26.0798" height="5.72484" rx="2.86242" fill="#E5E8F0"/>
<rect x="283.404" y="350.716" width="24.8076" height="5.72484" rx="2.86242" fill="#E5E8F0"/>
<rect x="283.404" y="369.609" width="24.8076" height="5.72484" rx="2.86242" fill="#E5E8F0"/>
<rect x="285.948" y="388.502" width="22.2633" height="5.72484" rx="2.86242" fill="#E5E8F0"/>
<rect x="299.942" y="407.396" width="8.26921" height="5.72484" rx="2.86242" fill="#E5E8F0"/>
<rect x="317.957" y="358.629" width="16.3619" height="15.698" rx="0.69256" fill="#8FBFF6"/>
<rect x="317.957" y="374.789" width="16.3619" height="21.7002" rx="0.69256" fill="#5598E6"/>
<rect x="317.957" y="396.951" width="16.3619" height="16.1597" rx="0.69256" fill="#5A78E5"/>
<rect x="321.066" y="424.653" width="10.1438" height="5.08874" rx="2.54437" fill="#E5E8F0"/>
<rect x="343.177" y="349.857" width="16.3619" height="10.6193" rx="0.69256" fill="#8FBFF6"/>
<rect x="343.177" y="360.938" width="16.3619" height="28.6258" rx="0.69256" fill="#5598E6"/>
<rect x="343.177" y="390.026" width="16.3619" height="23.0853" rx="0.69256" fill="#5A78E5"/>
<rect x="346.287" y="424.653" width="10.1438" height="5.08874" rx="2.54437" fill="#E5E8F0"/>
<rect x="368.398" y="342.008" width="16.3619" height="16.1597" rx="0.69256" fill="#8FBFF6"/>
<rect x="368.398" y="358.629" width="16.3619" height="39.2451" rx="0.69256" fill="#5598E6"/>
<rect x="368.398" y="398.336" width="16.3619" height="14.7746" rx="0.69256" fill="#5A78E5"/>
<rect x="371.225" y="424.653" width="10.7073" height="5.08874" rx="2.54437" fill="#E5E8F0"/>
<rect x="393.617" y="354.474" width="16.3619" height="15.698" rx="0.69256" fill="#8FBFF6"/>
<rect x="393.617" y="370.634" width="16.3619" height="17.0831" rx="0.69256" fill="#5598E6"/>
<rect x="393.617" y="388.178" width="16.3619" height="24.9322" rx="0.69256" fill="#5A78E5"/>
<rect x="397.009" y="424.653" width="9.58023" height="5.08874" rx="2.54437" fill="#E5E8F0"/>
<rect x="418.838" y="333.697" width="16.3619" height="18.93" rx="0.69256" fill="#8FBFF6"/>
<rect x="418.839" y="353.089" width="16.3619" height="26.779" rx="0.69256" fill="#5598E6"/>
<rect x="418.839" y="380.329" width="16.3619" height="32.7812" rx="0.69256" fill="#5A78E5"/>
<rect x="421.102" y="424.653" width="11.8344" height="5.08874" rx="2.54437" fill="#E5E8F0"/>
<rect x="444.058" y="330.927" width="16.3619" height="26.3173" rx="0.69256" fill="#8FBFF6"/>
<rect x="444.058" y="357.706" width="16.3619" height="26.779" rx="0.69256" fill="#5598E6"/>
<rect x="444.058" y="384.947" width="16.3619" height="28.1641" rx="0.69256" fill="#5A78E5"/>
<rect x="447.167" y="424.653" width="10.1438" height="5.08874" rx="2.54437" fill="#E5E8F0"/>
<rect x="469.278" y="354.474" width="16.3619" height="23.547" rx="0.69256" fill="#8FBFF6"/>
<rect x="469.278" y="378.483" width="16.3619" height="9.23413" rx="0.69256" fill="#5598E6"/>
<rect x="469.278" y="388.178" width="16.3619" height="24.9322" rx="0.69256" fill="#5A78E5"/>
<rect x="471.824" y="424.653" width="11.2709" height="5.08874" rx="2.54437" fill="#E5E8F0"/>
<rect x="494.498" y="366.94" width="16.3619" height="10.6193" rx="0.69256" fill="#8FBFF6"/>
<rect x="494.498" y="378.021" width="16.3619" height="14.7746" rx="0.69256" fill="#5598E6"/>
<rect x="494.498" y="393.257" width="16.3619" height="19.8534" rx="0.69256" fill="#5A78E5"/>
<rect x="497.326" y="424.653" width="10.7073" height="5.08874" rx="2.54437" fill="#E5E8F0"/>
<circle cx="530.459" cy="315.475" r="1.84683" fill="#8FBFF6"/>
<rect x="536.122" y="312.93" width="16.5384" height="5.08874" rx="2.54437" fill="#E5E8F0"/>
<circle cx="530.459" cy="324.257" r="1.84683" fill="#5598E6"/>
<rect x="536.122" y="321.713" width="13.358" height="5.08874" rx="2.54437" fill="#E5E8F0"/>
<circle cx="530.459" cy="333.039" r="1.84683" fill="#5A78E5"/>
<rect x="536.122" y="330.495" width="18.4467" height="5.08874" rx="2.54437" fill="#E5E8F0"/>
</g>
</g>
<rect x="265.293" y="234.69" width="305.694" height="222.009" rx="11.4497" stroke="url(#paint0_linear_3_174)" stroke-opacity="0.32" stroke-width="5.08874"/>
<path d="M267.5 229C269.06 236.265 274.735 241.94 282 243.5C274.735 245.06 269.06 250.735 267.5 258C265.94 250.735 260.265 245.06 253 243.5C260.265 241.94 265.94 236.265 267.5 229Z" fill="#387FF5"/>
<path d="M293.5 233C293.984 235.255 295.745 237.016 298 237.5C295.745 237.984 293.984 239.745 293.5 242C293.016 239.745 291.255 237.984 289 237.5C291.255 237.016 293.016 235.255 293.5 233Z" fill="#387FF5"/>
<rect x="35" y="237.268" width="208.441" height="217.167" rx="8.9053" fill="white"/>
<rect x="56.9835" y="258.529" width="74.5494" height="9.70163" rx="4.85081" fill="#E5E8F0"/>
<rect x="56.9835" y="274.869" width="127.653" height="7.65918" rx="3.82959" fill="#E5E8F0"/>
<path d="M55.9912 300.511L222.648 300.511" stroke="#E5E8F0" stroke-width="0.484748"/>
<rect x="69.9025" y="432.408" width="3.81656" height="3.87798" rx="1.90828" fill="#5A78E5"/>
<rect x="78.5662" y="431.167" width="29.5696" height="6.36093" rx="3.18047" fill="#E5E8F0"/>
<rect x="119.77" y="432.408" width="3.81656" height="3.87798" rx="1.90828" fill="#B59DF9"/>
<rect x="128.434" y="431.167" width="29.5696" height="6.36093" rx="3.18047" fill="#E5E8F0"/>
<rect x="169.638" y="432.408" width="3.81656" height="3.87798" rx="1.90828" fill="#FDAED0"/>
<rect x="178.302" y="431.167" width="29.5696" height="6.36093" rx="3.18047" fill="#E5E8F0"/>
<rect x="48.9941" y="320.866" width="13.5729" height="5.72484" rx="2.86242" fill="#E5E8F0"/>
<rect x="48.9941" y="333.588" width="13.5729" height="5.72484" rx="2.86242" fill="#E5E8F0"/>
<rect x="48.9941" y="346.31" width="13.5729" height="5.72484" rx="2.86242" fill="#E5E8F0"/>
<rect x="48.9941" y="359.032" width="13.5729" height="5.72484" rx="2.86242" fill="#E5E8F0"/>
<rect x="48.9941" y="371.754" width="13.5729" height="5.72484" rx="2.86242" fill="#E5E8F0"/>
<rect x="48.9941" y="384.476" width="13.5729" height="5.72484" rx="2.86242" fill="#E5E8F0"/>
<rect x="48.9941" y="397.197" width="13.5729" height="5.72484" rx="2.86242" fill="#E5E8F0"/>
<rect x="73.2951" y="408.647" width="13.5729" height="7.27122" rx="3.63561" fill="#E5E8F0"/>
<rect x="99.5899" y="408.647" width="13.5729" height="7.27122" rx="3.63561" fill="#E5E8F0"/>
<rect x="125.885" y="408.647" width="13.5729" height="7.27122" rx="3.63561" fill="#E5E8F0"/>
<rect x="152.179" y="408.647" width="13.5729" height="7.27122" rx="3.63561" fill="#E5E8F0"/>
<rect x="178.474" y="408.647" width="13.5729" height="7.27122" rx="3.63561" fill="#E5E8F0"/>
<rect x="204.769" y="408.647" width="13.5729" height="7.27122" rx="3.63561" fill="#E5E8F0"/>
<rect x="70.1438" y="321.856" width="155.119" height="80.4681" stroke="#E5E8F0" stroke-width="0.484748"/>
<path d="M69.9015 348.275H225.505" stroke="#E5E8F0" stroke-width="0.484748"/>
<path d="M69.9015 335.187H225.505" stroke="#E5E8F0" stroke-width="0.484748"/>
<path d="M69.9015 361.363H225.505" stroke="#E5E8F0" stroke-width="0.484748"/>
<path d="M69.9015 374.451H225.505" stroke="#E5E8F0" stroke-width="0.484748"/>
<path d="M69.9015 387.54H225.505" stroke="#E5E8F0" stroke-width="0.484748"/>
<path d="M96.0782 321.614L96.0782 402.567" stroke="#E5E8F0" stroke-width="0.484748"/>
<path d="M121.769 321.614L121.769 402.567" stroke="#E5E8F0" stroke-width="0.484748"/>
<path d="M147.461 321.614L147.461 402.567" stroke="#E5E8F0" stroke-width="0.484748"/>
<path d="M173.153 321.614L173.153 402.567" stroke="#E5E8F0" stroke-width="0.484748"/>
<path d="M198.845 321.614L198.845 402.567" stroke="#E5E8F0" stroke-width="0.484748"/>
<path d="M70.1436 335.187V361.363H173.395L147.218 322.099L121.769 335.187L96.0776 348.033L70.1436 335.187Z" fill="#5A78E5"/>
<path d="M198.602 374.694L173.396 361.363H225.021V402.082L198.602 374.694Z" fill="#5A78E5"/>
<circle cx="70.144" cy="374.694" r="1.69662" fill="#B59DF9"/>
<circle cx="96.3206" cy="348.517" r="1.69662" fill="#B59DF9"/>
<circle cx="122.012" cy="374.694" r="1.69662" fill="#B59DF9"/>
<circle cx="147.704" cy="387.297" r="1.69662" fill="#B59DF9"/>
<circle cx="173.395" cy="348.517" r="1.69662" fill="#B59DF9"/>
<circle cx="199.087" cy="335.429" r="1.69662" fill="#B59DF9"/>
<circle cx="225.263" cy="348.517" r="1.69662" fill="#B59DF9"/>
<path d="M70.1436 374.936L96.3199 348.517L122.012 374.936L147.703 387.297L173.637 348.517L199.329 335.187L224.778 348.517" stroke="#B59DF9" stroke-width="0.969495"/>
<path d="M70.1436 361.363L96.0776 374.451L122.496 361.363L147.218 346.82L172.425 335.187L198.844 348.275L225.02 361.363" stroke="#FDAED0" stroke-width="0.969495" stroke-dasharray="1.94 1.94"/>
<circle cx="70.144" cy="361.606" r="1.69662" fill="#FDAED0"/>
<circle cx="96.3206" cy="374.694" r="1.69662" fill="#FDAED0"/>
<circle cx="122.012" cy="361.606" r="1.69662" fill="#FDAED0"/>
<circle cx="147.704" cy="346.578" r="1.69662" fill="#FDAED0"/>
<circle cx="173.395" cy="335.429" r="1.69662" fill="#FDAED0"/>
<circle cx="198.602" cy="348.517" r="1.69662" fill="#FDAED0"/>
<circle cx="225.263" cy="361.606" r="1.69662" fill="#FDAED0"/>
<rect x="32.4556" y="234.723" width="213.53" height="222.256" rx="11.4497" stroke="url(#paint1_linear_3_174)" stroke-opacity="0.32" stroke-width="5.08874"/>
<rect x="371" y="6.29736" width="202.918" height="205.548" rx="8.9053" fill="white"/>
<rect x="390.797" y="23.1746" width="74.5494" height="9.70163" rx="4.85081" fill="#E5E8F0"/>
<rect x="390.797" y="39.5142" width="127.653" height="7.65918" rx="3.82959" fill="#E5E8F0"/>
<path d="M390.44 63.8848L554.552 63.8848" stroke="#E5E8F0" stroke-width="0.438269"/>
<rect x="513.875" y="96.365" width="3.81656" height="3.50615" rx="1.75308" fill="#5A78E5"/>
<rect x="522.074" y="94.9375" width="26.7344" height="6.36093" rx="3.18047" fill="#E5E8F0"/>
<rect x="513.875" y="105.27" width="3.81656" height="3.50615" rx="1.75308" fill="#B59DF9"/>
<rect x="522.074" y="103.843" width="26.7344" height="6.36093" rx="3.18047" fill="#E5E8F0"/>
<rect x="513.875" y="114.175" width="3.81656" height="3.50615" rx="1.75308" fill="#FDAED0"/>
<rect x="522.074" y="112.748" width="26.7344" height="6.36093" rx="3.18047" fill="#E5E8F0"/>
<rect x="513.875" y="123.081" width="3.81656" height="3.50615" rx="1.75308" fill="#539EF3"/>
<rect x="522.074" y="121.653" width="26.7344" height="6.36093" rx="3.18047" fill="#E5E8F0"/>
<path opacity="0.6" d="M432.577 126.377L411.102 146.099L438.712 154.426L459.749 163.411L455.805 139.964L461.064 126.377L447.04 119.803L432.577 126.377Z" fill="#B59DF9" stroke="#B59DF9" stroke-width="0.876538"/>
<path d="M410.395 108.549L447.04 90.9014L483.685 108.549L492.735 148.202L467.376 180.001H426.703L401.344 148.202L410.395 108.549Z" stroke="#9EA5BD" stroke-width="0.438269"/>
<path d="M417.933 114.56L447.039 100.543L476.146 114.56L483.335 146.056L463.192 171.314H430.887L410.744 146.056L417.933 114.56Z" stroke="#9EA5BD" stroke-width="0.438269"/>
<path d="M424.786 120.025L447.039 109.309L469.293 120.025L474.789 144.106L459.389 163.417H434.69L419.29 144.106L424.786 120.025Z" stroke="#9EA5BD" stroke-width="0.438269"/>
<path d="M432.667 126.31L447.04 119.389L461.412 126.31L464.962 141.863L455.016 154.335H439.063L429.117 141.863L432.667 126.31Z" stroke="#9EA5BD" stroke-width="0.438269"/>
<path d="M439.863 132.049L447.04 128.592L454.217 132.049L455.989 139.815L451.023 146.042H443.057L438.091 139.815L439.863 132.049Z" stroke="#9EA5BD" stroke-width="0.438269"/>
<path d="M401.46 148.071L447.04 137.772L483.416 108.627" stroke="#9EA5BD" stroke-width="0.438269"/>
<path d="M467.559 180.119L447.388 137.967L410.888 108.978" stroke="#9EA5BD" stroke-width="0.438269"/>
<path d="M447.377 91.0595L447.23 137.788L426.688 179.63" stroke="#9EA5BD" stroke-width="0.438269"/>
<path d="M447.259 137.991L492.62 148.291" stroke="#9EA5BD" stroke-width="0.438269"/>
<path opacity="0.6" d="M426.002 121.118L447.039 91.3154L453.613 132.074L467.418 142.155L450.545 144.784L433.453 165.383L440.903 139.087L426.002 121.118Z" fill="#5598E6" stroke="#5A78E5" stroke-width="0.876538"/>
<circle cx="447.039" cy="91.3154" r="1.09567" fill="#5A78E5"/>
<circle cx="426.002" cy="121.118" r="1.09567" fill="#5A78E5"/>
<circle cx="440.903" cy="139.087" r="1.09567" fill="#5A78E5"/>
<circle cx="433.453" cy="165.383" r="1.09567" fill="#5A78E5"/>
<circle cx="450.545" cy="144.784" r="1.09567" fill="#5A78E5"/>
<circle cx="467.199" cy="142.155" r="1.09567" fill="#5A78E5"/>
<circle cx="453.613" cy="132.074" r="1.09567" fill="#5A78E5"/>
<circle cx="411.101" cy="146.099" r="1.09567" fill="#B59DF9"/>
<circle cx="438.712" cy="154.426" r="1.09567" fill="#B59DF9"/>
<circle cx="459.749" cy="163.192" r="1.09567" fill="#B59DF9"/>
<circle cx="461.064" cy="126.377" r="1.09567" fill="#B59DF9"/>
<circle cx="447.039" cy="100.957" r="1.09567" fill="#FDAED0"/>
<circle cx="476.403" cy="114.543" r="1.09567" fill="#FDAED0"/>
<circle cx="474.65" cy="143.908" r="1.09567" fill="#FDAED0"/>
<circle cx="454.928" cy="153.988" r="1.09567" fill="#FDAED0"/>
<circle cx="455.805" cy="139.963" r="1.09567" fill="#B59DF9"/>
<circle cx="447.039" cy="119.803" r="1.09567" fill="#B59DF9"/>
<circle cx="432.576" cy="126.377" r="1.09567" fill="#B59DF9"/>
<circle cx="454.928" cy="153.988" r="1.09567" fill="#FDAED0"/>
<circle cx="438.273" cy="139.525" r="1.09567" fill="#FDAED0"/>
<circle cx="417.675" cy="114.543" r="1.09567" fill="#FDAED0"/>
<circle cx="443.095" cy="146.099" r="1.09567" fill="#FDAED0"/>
<path opacity="0.6" d="M447.039 100.958L417.675 114.544L438.273 139.525L443.094 146.099L454.928 153.988L474.65 143.908L476.403 114.544L447.039 100.958Z" fill="#FDAED0" stroke="#FDAED0" stroke-width="0.876538"/>
<circle cx="417.675" cy="114.543" r="1.09567" fill="#539EF3"/>
<circle cx="401.459" cy="147.852" r="1.09567" fill="#539EF3"/>
<circle cx="443.095" cy="146.099" r="1.09567" fill="#539EF3"/>
<circle cx="455.805" cy="140.401" r="1.09567" fill="#539EF3"/>
<circle cx="483.853" cy="108.846" r="1.09567" fill="#539EF3"/>
<circle cx="447.039" cy="109.723" r="1.09567" fill="#539EF3"/>
<path opacity="0.6" d="M401.459 147.852L417.675 114.544L447.039 109.723L483.854 108.846L455.804 140.182L443.095 146.099L401.459 147.852Z" fill="#8FBFF6" stroke="#539EF3" stroke-width="0.876538"/>
<rect x="441.328" y="81.6953" width="11.4497" height="5.08874" rx="2.54437" fill="#E5E8F0"/>
<rect x="485.218" y="103.093" width="11.4497" height="5.08874" rx="2.54437" fill="#E5E8F0"/>
<rect x="495.396" y="144.032" width="11.4497" height="5.08874" rx="2.54437" fill="#E5E8F0"/>
<rect x="467.718" y="182.605" width="11.4497" height="5.08874" rx="2.54437" fill="#E5E8F0"/>
<rect x="414.285" y="182.605" width="11.4497" height="5.08874" rx="2.54437" fill="#E5E8F0"/>
<rect x="386.934" y="142.531" width="11.4497" height="5.08874" rx="2.54437" fill="#E5E8F0"/>
<rect x="397.111" y="102.457" width="11.4497" height="5.08874" rx="2.54437" fill="#E5E8F0"/>
<rect x="368.456" y="3.75299" width="208.007" height="210.637" rx="11.4497" stroke="url(#paint2_linear_3_174)" stroke-opacity="0.32" stroke-width="5.08874"/>
<rect x="35" y="6" width="305" height="206" rx="8.9053" fill="white"/>
<rect x="53.3821" y="20.2971" width="74.5494" height="9.70163" rx="4.85081" fill="#E5E8F0"/>
<rect x="53.3821" y="36.6367" width="127.653" height="7.65918" rx="3.82959" fill="#E5E8F0"/>
<rect x="51.2275" y="71.2202" width="12.0858" height="5.08874" rx="2.54437" fill="#E5E8F0"/>
<rect x="51.2276" y="84.5781" width="12.0858" height="5.08874" rx="2.54437" fill="#E5E8F0"/>
<rect x="51.2276" y="97.936" width="12.0858" height="5.08874" rx="2.54437" fill="#E5E8F0"/>
<rect x="51.2276" y="111.294" width="12.0858" height="5.08874" rx="2.54437" fill="#E5E8F0"/>
<rect x="51.2276" y="124.652" width="12.0858" height="5.08874" rx="2.54437" fill="#E5E8F0"/>
<rect x="51.2276" y="138.01" width="12.0858" height="5.08874" rx="2.54437" fill="#E5E8F0"/>
<rect x="51.2276" y="151.368" width="12.0858" height="5.08874" rx="2.54437" fill="#E5E8F0"/>
<path d="M47.6386 56.771L327.649 56.771" stroke="#E5E8F0" stroke-width="0.510612"/>
<rect x="71.7636" y="189.283" width="3.81656" height="4.0849" rx="1.90828" fill="#5A78E5"/>
<rect x="80.0328" y="188.146" width="26.7344" height="6.36093" rx="3.18047" fill="#E5E8F0"/>
<rect x="122.033" y="189.283" width="3.81656" height="4.0849" rx="1.90828" fill="#B59DF9"/>
<rect x="130.302" y="188.146" width="26.7344" height="6.36093" rx="3.18047" fill="#E5E8F0"/>
<rect x="172.303" y="189.283" width="3.81656" height="4.0849" rx="1.90828" fill="#FDAED0"/>
<rect x="180.572" y="188.146" width="26.7344" height="6.36093" rx="3.18047" fill="#E5E8F0"/>
<rect x="93.3574" y="162.428" width="7.77248" height="4.40642" rx="2.20321" fill="#E5E8F0"/>
<rect x="134.812" y="162.102" width="7.85655" height="5.10694" rx="2.55347" fill="#E5E8F0"/>
<rect x="177.128" y="162.102" width="7.85655" height="5.10694" rx="2.55347" fill="#E5E8F0"/>
<rect x="215.572" y="162.102" width="7.85655" height="5.10694" rx="2.55347" fill="#E5E8F0"/>
<rect x="258.647" y="162.102" width="7.85655" height="5.10694" rx="2.55347" fill="#E5E8F0"/>
<rect x="301.651" y="162.102" width="7.85655" height="5.10694" rx="2.55347" fill="#E5E8F0"/>
<rect x="77.0512" y="71.8471" width="249.899" height="85.0665" stroke="#E5E8F0" stroke-width="0.510612"/>
<path d="M76.7959 99.7759H327.205" stroke="#E5E8F0" stroke-width="0.510612"/>
<path d="M76.7959 85.9399H327.205" stroke="#E5E8F0" stroke-width="0.510612"/>
<path d="M76.7959 113.612H327.205" stroke="#E5E8F0" stroke-width="0.510612"/>
<path d="M76.7959 127.448H327.205" stroke="#E5E8F0" stroke-width="0.510612"/>
<path d="M76.7959 141.283H327.205" stroke="#E5E8F0" stroke-width="0.510612"/>
<path d="M118.921 71.5918L118.921 157.169" stroke="#E5E8F0" stroke-width="0.510612"/>
<path d="M160.266 71.5918L160.266 157.169" stroke="#E5E8F0" stroke-width="0.510612"/>
<path d="M201.611 71.5918L201.611 157.169" stroke="#E5E8F0" stroke-width="0.510612"/>
<path d="M242.955 71.5918L242.955 157.169" stroke="#E5E8F0" stroke-width="0.510612"/>
<path d="M284.3 71.5918L284.3 157.169" stroke="#E5E8F0" stroke-width="0.510612"/>
<rect x="82.8545" y="113.957" width="28.7798" height="24.2353" fill="#5A78E5"/>
<rect x="82.8545" y="138.192" width="28.7798" height="6.60963" fill="#B59DF9"/>
<rect x="82.8545" y="144.802" width="28.7798" height="3.30481" fill="#FDAED0"/>
<rect x="123.584" y="113.957" width="30.2945" height="3.30481" fill="#FDAED0"/>
<rect x="166.165" y="72.0959" width="28.7798" height="14.3209" fill="#FDAED0"/>
<rect x="207.062" y="134.888" width="28.7798" height="6.60963" fill="#FDAED0"/>
<rect x="247.96" y="79.8071" width="30.2945" height="14.3209" fill="#FDAED0"/>
<rect x="290.372" y="113.957" width="28.7798" height="3.30481" fill="#FDAED0"/>
<rect x="123.584" y="94.1282" width="30.2945" height="5.50802" fill="#B59DF9"/>
<rect x="166.165" y="86.4167" width="28.7798" height="19.8289" fill="#B59DF9"/>
<rect x="207.062" y="129.379" width="28.7798" height="5.50802" fill="#B59DF9"/>
<rect x="247.96" y="94.1279" width="30.2945" height="13.2193" fill="#B59DF9"/>
<rect x="290.372" y="79.8071" width="28.7798" height="3.30481" fill="#B59DF9"/>
<rect x="123.584" y="99.6362" width="30.2945" height="14.3209" fill="#5A78E5"/>
<rect x="166.165" y="106.246" width="28.7798" height="7.71123" fill="#5A78E5"/>
<rect x="207.062" y="113.957" width="28.7798" height="15.4225" fill="#5A78E5"/>
<rect x="247.96" y="107.347" width="30.2945" height="6.60963" fill="#5A78E5"/>
<path d="M290.372 83.1121H319.152V113.957H290.372V83.1121Z" fill="#5A78E5"/>
<rect x="32.4556" y="3.45563" width="310.089" height="211.089" rx="11.4497" stroke="url(#paint3_linear_3_174)" stroke-opacity="0.32" stroke-width="5.08874"/>
<path d="M31.5 98C32.8449 104.263 37.7371 109.155 44 110.5C37.7371 111.845 32.8449 116.737 31.5 123C30.1551 116.737 25.2629 111.845 19 110.5C25.2629 109.155 30.1551 104.263 31.5 98Z" fill="#387FF5"/>
<path d="M222 231C222.646 234.006 224.994 236.354 228 237C224.994 237.646 222.646 239.994 222 243C221.354 239.994 219.006 237.646 216 237C219.006 236.354 221.354 234.006 222 231Z" fill="#387FF5"/>
<defs>
<linearGradient id="paint0_linear_3_174" x1="426.326" y1="454.155" x2="426.326" y2="259.534" gradientUnits="userSpaceOnUse">
<stop stop-color="#5F73F9" stop-opacity="0.46"/>
<stop offset="1" stop-color="#ABB5F8" stop-opacity="0"/>
</linearGradient>
<linearGradient id="paint1_linear_3_174" x1="144.897" y1="454.435" x2="144.897" y2="259.592" gradientUnits="userSpaceOnUse">
<stop stop-color="#5F73F9" stop-opacity="0.46"/>
<stop offset="1" stop-color="#ABB5F8" stop-opacity="0"/>
</linearGradient>
<linearGradient id="paint2_linear_3_174" x1="477.985" y1="211.845" x2="477.985" y2="27.4271" gradientUnits="userSpaceOnUse">
<stop stop-color="#5F73F9" stop-opacity="0.46"/>
<stop offset="1" stop-color="#ABB5F8" stop-opacity="0"/>
</linearGradient>
<linearGradient id="paint3_linear_3_174" x1="195.806" y1="212" x2="195.806" y2="27.1762" gradientUnits="userSpaceOnUse">
<stop stop-color="#5F73F9" stop-opacity="0.46"/>
<stop offset="1" stop-color="#ABB5F8" stop-opacity="0"/>
</linearGradient>
<clipPath id="clip0_3_174">
<rect x="267.837" y="237.235" width="300.606" height="216.921" rx="8.9053" fill="white"/>
</clipPath>
<clipPath id="clip1_3_174">
<rect width="272.437" height="116.812" fill="white" transform="translate(282.132 312.93)"/>
</clipPath>
</defs>
</svg>
